<svg width="34" height="24" viewBox="0 0 34 24" fill="none" xmlns="http://www.w3.org/2000/svg">
<g id="items12">
<path id="Vector" d="M28.2294 12.5694H17.9357L20.9917 10.3232C22.4503 9.25283 23.321 7.52799 23.321 5.70331C23.321 4.48871 22.9439 3.32956 22.2284 2.3479C21.3355 1.11111 20.0155 0.301375 18.5181 0.0684375C17.0206 -0.1645 15.5176 0.201545 14.2975 1.10002L8.64042 5.25962C8.62378 5.26516 8.60714 5.2818 8.5905 5.29289L2.97781 9.41922C1.51918 10.4896 0.648438 12.2145 0.648438 14.0281C0.648438 15.2427 1.02557 16.4073 1.74103 17.3946C2.84471 18.9253 4.56955 19.7461 6.31659 19.7461C7.10414 19.7461 7.89169 19.5797 8.64042 19.2359C9.08411 21.9368 11.4301 24 14.2586 24H28.2294C31.3685 24 33.9252 21.4432 33.9252 18.2653C33.9252 15.1262 31.3685 12.5694 28.2294 12.5694ZM2.6395 16.7457C2.0627 15.947 1.75766 15.0097 1.75766 14.0281C1.75766 12.5639 2.45648 11.1718 3.63226 10.3121L8.97318 6.38548C11.236 7.98832 12.8943 10.0681 13.9148 12.5805C11.0197 12.7524 8.70697 15.0985 8.56832 18.0324C6.57171 19.186 4.00939 18.648 2.6395 16.7457ZM9.672 18.3429V18.2653C9.672 15.7363 11.7296 13.6786 14.2586 13.6786H16.1942H16.1998H16.3329H20.8419C21.879 16.7346 21.879 19.8349 20.8419 22.8908H14.2586C11.7573 22.8908 9.71636 20.8775 9.672 18.3429Z" fill="black"/>
</g>
</svg>
