<svg width="17" height="24" viewBox="0 0 17 24" fill="none" xmlns="http://www.w3.org/2000/svg">
<g id="items11">
<path id="Vector" d="M4.05742 4.08H13.0654C13.7294 4.08 14.2654 3.54 14.2654 2.88V1.2C14.2654 0.54 13.7294 0 13.0654 0H4.05742C3.39342 0 2.85742 0.54 2.85742 1.2V2.88C2.85742 3.54 3.39342 4.08 4.05742 4.08Z" fill="black"/>
<path id="Vector_2" d="M13.8487 5.30086C13.5327 5.30086 13.2527 5.13286 13.0927 4.88086H12.2287H4.89266H4.02866C3.86866 5.13286 3.58866 5.30086 3.27266 5.30086C1.72866 5.30086 0.472656 6.56086 0.472656 8.10086V21.2009C0.472656 22.7449 1.72866 24.0009 3.27266 24.0009H13.8487C15.3927 24.0009 16.6487 22.7449 16.6487 21.2009V8.10086C16.6487 6.56086 15.3927 5.30086 13.8487 5.30086ZM15.8487 20.1209H1.27266V9.18486H15.8487V20.1209Z" fill="black"/>
<path id="Vector_3" d="M8.30031 15.9328C8.37631 15.9968 8.46831 16.0248 8.56031 16.0248C8.65231 16.0248 8.74431 15.9968 8.82031 15.9328C9.52831 15.3328 9.90431 14.6328 9.93631 13.8528C10.0003 12.4368 8.89231 11.2968 8.84431 11.2488C8.69631 11.0968 8.42431 11.0968 8.27631 11.2488C8.22831 11.2968 7.12031 12.4368 7.18431 13.8528C7.21631 14.6328 7.59231 15.3328 8.30031 15.9328Z" fill="black"/>
<path id="Vector_4" d="M5.67203 17.8911C6.04003 18.0791 6.43603 18.1711 6.85603 18.1711C7.23203 18.1711 7.62403 18.0991 8.03603 17.9471C8.21603 17.8791 8.32803 17.6911 8.29203 17.4991C8.12003 16.5871 7.70003 15.9151 7.04003 15.4951C5.84003 14.7391 4.30003 15.1391 4.23603 15.1551C4.13203 15.1831 4.04403 15.2511 3.99203 15.3431C3.93603 15.4351 3.92403 15.5471 3.95203 15.6511C3.97203 15.7151 4.41203 17.2431 5.67203 17.8911Z" fill="black"/>
<path id="Vector_5" d="M8.82898 17.4991C8.79298 17.6911 8.90499 17.8791 9.08499 17.9471C9.49699 18.0991 9.88898 18.1711 10.265 18.1711C10.685 18.1711 11.081 18.0791 11.449 17.8911C12.709 17.2431 13.149 15.7151 13.169 15.6511C13.197 15.5471 13.185 15.4351 13.129 15.3431C13.077 15.2511 12.989 15.1831 12.885 15.1551C12.821 15.1391 11.281 14.7391 10.081 15.4951C9.42099 15.9151 9.00098 16.5871 8.82898 17.4991Z" fill="black"/>
</g>
</svg>
