<svg width="24" height="24" viewBox="0 0 24 24" fill="none" xmlns="http://www.w3.org/2000/svg">
<g id="Property 1=cart">
<path id="Vector" d="M3.7423 18.5545C4.94192 20 7.17463 20 11.64 20H12.3612C16.8266 20 19.0593 20 20.259 18.5545M3.7423 18.5545C2.54268 17.1091 2.95414 14.9146 3.77706 10.5257C4.36228 7.40452 4.65489 5.84393 5.76579 4.92196M3.7423 18.5545C3.7423 18.5545 3.7423 18.5545 3.7423 18.5545ZM20.259 18.5545C21.4586 17.1091 21.0471 14.9146 20.2242 10.5257C19.639 7.40452 19.3464 5.84393 18.2355 4.92196M20.259 18.5545C20.259 18.5545 20.259 18.5545 20.259 18.5545ZM18.2355 4.92196C17.1246 4 15.5368 4 12.3612 4H11.64C8.46447 4 6.87669 4 5.76579 4.92196M18.2355 4.92196C18.2355 4.92196 18.2355 4.92196 18.2355 4.92196ZM5.76579 4.92196C5.76579 4.92196 5.76579 4.92196 5.76579 4.92196Z" stroke="#151515" stroke-width="1.5"/>
<path id="Vector_2" d="M9.17188 8C9.58371 9.16519 10.695 10 12.0012 10C13.3074 10 14.4186 9.16519 14.8305 8" stroke="#151515" stroke-width="1.5" stroke-linecap="round"/>
</g>
</svg>
