
<svg xmlns="http://www.w3.org/2000/svg" width="33" height="32" viewBox="0 0 33 32" fill="none">
<path
d="M5.48843 24.7394C7.08792 26.6667 10.0649 26.6667 16.0187 26.6667H16.9803C22.9342 26.6667 25.9111 26.6667 27.5106 24.7394M5.48843 24.7394C3.88893 22.8122 4.43755 19.8862 5.53478 14.0343C6.31507 9.87273 6.70522 7.79194 8.18642 6.56266M5.48843 24.7394C5.48843 24.7394 5.48843 24.7394 5.48843 24.7394ZM27.5106 24.7394C29.1101 22.8122 28.5615 19.8862 27.4643 14.0343C26.684 9.87273 26.2938 7.79194 24.8127 6.56266M27.5106 24.7394C27.5106 24.7394 27.5106 24.7394 27.5106 24.7394ZM24.8127 6.56266C23.3315 5.33337 21.2144 5.33337 16.9803 5.33337H16.0187C11.7847 5.33337 9.66762 5.33337 8.18642 6.56266M24.8127 6.56266C24.8127 6.56266 24.8126 6.56266 24.8127 6.56266ZM8.18642 6.56266C8.18642 6.56266 8.18642 6.56266 8.18642 6.56266Z" stroke="white" stroke-width="1.5"/>
<path
d="M12.7266 10.6667C13.2757 12.2203 14.7573 13.3334 16.499 13.3334C18.2406 13.3334 19.7222 12.2203 20.2713 10.6667" stroke="white" stroke-width="1.5" stroke-linecap="round"/>
</svg>