<svg width="13" height="24" viewBox="0 0 13 24" fill="none" xmlns="http://www.w3.org/2000/svg">
<g id="items10">
<path id="Vector" d="M8.86383 0H4.03983C2.04783 0 0.423828 1.624 0.423828 3.616V14.356C0.423828 16.348 2.04783 17.972 4.03983 17.972H4.84383V19.176C4.84383 19.84 5.38783 20.38 6.04783 20.38V23.6C6.04783 23.82 6.22783 24 6.44783 24C6.66783 24 6.84783 23.82 6.84783 23.6V20.384C7.51183 20.384 8.05183 19.84 8.05183 19.18V17.976H8.85583C10.8478 17.976 12.4718 16.352 12.4718 14.36V3.616C12.4798 1.624 10.8558 0 8.86383 0ZM2.73583 14.756C2.73583 14.536 2.91183 14.356 3.13583 14.356H9.76783C9.99183 14.356 10.1678 14.536 10.1678 14.756C10.1678 14.976 9.99183 15.156 9.76783 15.156H3.13583C2.91183 15.16 2.73583 14.976 2.73583 14.756ZM3.49583 8.984C3.49583 7.352 4.82383 6.028 6.45183 6.028C8.07983 6.028 9.40783 7.356 9.40783 8.984C9.40783 10.612 8.07983 11.94 6.45183 11.94C4.82383 11.94 3.49583 10.616 3.49583 8.984ZM9.76783 3.616H3.13583C2.91183 3.616 2.73583 3.436 2.73583 3.216C2.73583 2.996 2.91183 2.816 3.13583 2.816H9.76783C9.99183 2.816 10.1678 2.996 10.1678 3.216C10.1678 3.436 9.99183 3.616 9.76783 3.616Z" fill="black"/>
<path id="Vector_2" d="M8.60692 8.98412C8.60692 7.79612 7.64292 6.82812 6.45092 6.82812C5.25892 6.82812 4.29492 7.79212 4.29492 8.98412C4.29492 10.1721 5.25892 11.1401 6.45092 11.1401C7.64292 11.1401 8.60692 10.1761 8.60692 8.98412ZM6.05092 9.90813V9.38812H5.53092C5.30692 9.38812 5.13092 9.20812 5.13092 8.98812C5.13092 8.76812 5.30692 8.58812 5.53092 8.58812H6.05092V8.06813C6.05092 7.84413 6.23092 7.66813 6.45092 7.66813C6.67092 7.66813 6.85092 7.84413 6.85092 8.06813V8.58812H7.37092C7.59492 8.58812 7.77092 8.76812 7.77092 8.98812C7.77092 9.20812 7.59492 9.38812 7.37092 9.38812H6.85092V9.90813C6.85092 10.1321 6.67092 10.3081 6.45092 10.3081C6.23092 10.3081 6.05092 10.1321 6.05092 9.90813Z" fill="black"/>
</g>
</svg>
