<svg width="26" height="24" viewBox="0 0 26 24" fill="none" xmlns="http://www.w3.org/2000/svg">
<g id="items08">
<g id="items02">
<path id="Vector" d="M11.1727 6.12811V2.04297H3.28039L2.58594 6.12811H11.1727Z" fill="black"/>
<path id="Vector_2" d="M9.69531 14.2983H11.9766C12.941 14.2983 13.7256 13.5137 13.7256 12.5494V9.04102C11.6517 9.99462 10.112 11.9155 9.69531 14.2983Z" fill="black"/>
<path id="Vector_3" d="M3.54745 19.3664L4.34184 14.0159C4.39939 13.6282 4.10089 13.2773 3.7049 13.2773H2.58359L1.59766 19.9158H2.9105C3.22711 19.9158 3.50099 19.6796 3.54745 19.3664Z" fill="black"/>
<path id="Vector_4" d="M18.0197 0H17.3008V7.3652H18.0197C18.5828 7.3652 19.0409 6.9071 19.0409 6.34394V1.02126C19.041 0.458108 18.5828 0 18.0197 0Z" fill="black"/>
<path id="Vector_5" d="M1.10953 1.5094L0.176339 6.61782C0.0573099 7.26953 0.299489 7.93788 0.808476 8.36198L1.80398 9.1915C2.56555 9.82619 2.94815 10.8295 2.80248 11.8101L2.73634 12.2554H3.70594C4.72327 12.2554 5.50226 13.1601 5.3531 14.1651L4.55871 19.5156C4.43851 20.3255 3.73037 20.9363 2.91154 20.9363H1.44699L1.25113 22.2552C1.16782 22.8163 1.5565 23.3369 2.11813 23.4164L6.16751 23.9899C6.71963 24.0683 7.23676 23.6831 7.32046 23.1318L8.65858 14.3101C9.23846 10.4871 12.425 7.59271 16.2788 7.37835V0H2.91964C2.03056 0 1.26928 0.634836 1.10953 1.5094ZM12.1936 1.53192V6.63832C12.1936 6.92034 11.9649 7.14898 11.6829 7.14898H1.98071C1.66513 7.14898 1.42418 6.86475 1.47731 6.55276L2.3454 1.44635C2.38715 1.20084 2.59984 1.02126 2.84879 1.02126H11.6829C11.9649 1.02126 12.1936 1.24995 12.1936 1.53192Z" fill="black"/>
<path id="Vector_6" d="M23.6725 0.14951C23.473 -0.0498365 23.1498 -0.0498365 22.9504 0.14951C22.7509 0.348954 22.7509 0.672284 22.9504 0.871679C24.5471 2.46831 24.5468 5.0526 22.9504 6.64893C22.7509 6.84833 22.7509 7.17171 22.9504 7.3711C23.1499 7.5705 23.473 7.57055 23.6725 7.3711C25.6684 5.37524 25.6681 2.14503 23.6725 0.14951Z" fill="black"/>
<path id="Vector_7" d="M22.2272 1.59482C22.0277 1.39548 21.7045 1.39548 21.505 1.59482C21.3056 1.79427 21.3056 2.1176 21.505 2.31699C22.3034 3.11541 22.3032 4.40725 21.505 5.20567C21.3056 5.40511 21.3056 5.72839 21.5051 5.92779C21.7045 6.12728 22.0279 6.12713 22.2272 5.92774C23.4246 4.73014 23.4245 2.79222 22.2272 1.59482Z" fill="black"/>
</g>
</g>
</svg>
