<svg xmlns="http://www.w3.org/2000/svg" width="32" height="32" viewBox="0 0 32 32" fill="none">
<path
d="M11.9503 25.2144L12.4146 24.6254L11.9503 25.2144ZM16.0013 7.33405L15.4609 7.85416C15.6023 8.00105 15.7974 8.08405 16.0013 8.08405C16.2052 8.08405 16.4003 8.00105 16.5417 7.85416L16.0013 7.33405ZM20.0523 25.2144L20.5166 25.8034L20.0523 25.2144ZM12.4146 24.6254C10.4086 23.044 8.17109 21.4679 6.39876 19.4722C4.65214 17.5055 3.41797 15.1906 3.41797 12.1827H1.91797C1.91797 15.6587 3.36342 18.3133 5.27719 20.4683C7.16524 22.5943 9.56893 24.2921 11.486 25.8034L12.4146 24.6254ZM3.41797 12.1827C3.41797 9.22132 5.09168 6.72497 7.39651 5.67143C9.65406 4.6395 12.653 4.9368 15.4609 7.85416L16.5417 6.81395C13.3498 3.49775 9.68209 2.97741 6.77292 4.3072C3.91103 5.61537 1.91797 8.66012 1.91797 12.1827H3.41797ZM11.486 25.8034C12.1712 26.3436 12.891 26.9066 13.6165 27.3306C14.3418 27.7544 15.1442 28.0832 16.0013 28.0832V26.5832C15.525 26.5832 14.9941 26.3983 14.3733 26.0355C13.7528 25.6729 13.1137 25.1765 12.4146 24.6254L11.486 25.8034ZM20.5166 25.8034C22.4337 24.2921 24.8374 22.5943 26.7254 20.4683C28.6392 18.3133 30.0846 15.6587 30.0846 12.1827H28.5846C28.5846 15.1906 27.3505 17.5055 25.6038 19.4722C23.8315 21.4679 21.5941 23.044 19.588 24.6254L20.5166 25.8034ZM30.0846 12.1827C30.0846 8.66012 28.0916 5.61537 25.2297 4.3072C22.3205 2.97741 18.6528 3.49775 15.4609 6.81395L16.5417 7.85416C19.3496 4.9368 22.3485 4.6395 24.6061 5.67143C26.9109 6.72497 28.5846 9.22132 28.5846 12.1827H30.0846ZM19.588 24.6254C18.8889 25.1765 18.2498 25.6729 17.6293 26.0355C17.0085 26.3982 16.4776 26.5832 16.0013 26.5832V28.0832C16.8584 28.0832 17.6608 27.7544 18.3861 27.3306C19.1116 26.9066 19.8314 26.3436 20.5166 25.8034L19.588 24.6254Z"
fill="white"/>
</svg>