<svg xmlns="http://www.w3.org/2000/svg" width="32" height="32" viewBox="0 0 32 32" fill="none">
<path d="M2.66797 16.2719C2.66797 13.2206 2.66797 11.695 3.36024 10.4303C4.0525 9.16557 5.31723 8.38064 7.84668 6.81079L10.5133 5.15579C13.1872 3.49635 14.5241 2.66663 16.0013 2.66663C17.4786 2.66663 18.8155 3.49635 21.4893 5.15578L24.1559 6.81079C26.6854 8.38064 27.9501 9.16557 28.6424 10.4303C29.3346 11.695 29.3346 13.2206 29.3346 16.2719V18.2999C29.3346 23.5011 29.3346 26.1017 27.7725 27.7175C26.2104 29.3333 23.6963 29.3333 18.668 29.3333H13.3346C8.30632 29.3333 5.79216 29.3333 4.23007 27.7175C2.66797 26.1017 2.66797 23.5011 2.66797 18.2999V16.2719Z"  stroke="white" stroke-width="1.5"/>
<path d="M20 24H12" stroke="white" stroke-width="1.5" stroke-linecap="round"/>
</svg>