<svg width="16" height="17" viewBox="0 0 16 17" fill="none" xmlns="http://www.w3.org/2000/svg">
<g id="icon_line">
<path id="Rectangle 1884" d="M9 11.2038C9 9.9467 9 9.31816 9.39052 8.92763C9.78105 8.53711 10.4096 8.53711 11.6667 8.53711C12.9237 8.53711 13.5523 8.53711 13.9428 8.92763C14.3333 9.31816 14.3333 9.9467 14.3333 11.2038V12.5371C14.3333 13.7942 14.3333 14.4227 13.9428 14.8133C13.5523 15.2038 12.9237 15.2038 11.6667 15.2038C10.4096 15.2038 9.78105 15.2038 9.39052 14.8133C9 14.4227 9 13.7942 9 12.5371V11.2038Z" stroke="#9C9C9C" stroke-width="1.5"/>
<path id="Rectangle 1885" d="M1.33398 6.53711C1.33398 7.79419 1.33398 8.42273 1.72451 8.81325C2.11503 9.20378 2.74357 9.20378 4.00065 9.20378C5.25773 9.20378 5.88627 9.20378 6.27679 8.81325C6.66732 8.42273 6.66732 7.79419 6.66732 6.53711V5.20378C6.66732 3.9467 6.66732 3.31816 6.27679 2.92763C5.88627 2.53711 5.25773 2.53711 4.00065 2.53711C2.74357 2.53711 2.11503 2.53711 1.72451 2.92763C1.33398 3.31816 1.33398 3.9467 1.33398 5.20378V6.53711Z" stroke="#9C9C9C" stroke-width="1.5"/>
<path id="Rectangle 1881" d="M9 4.53711C9 3.91585 9 3.60523 9.10149 3.3602C9.23682 3.03349 9.49638 2.77393 9.82309 2.6386C10.0681 2.53711 10.3787 2.53711 11 2.53711H12.3333C12.9546 2.53711 13.2652 2.53711 13.5102 2.6386C13.8369 2.77393 14.0965 3.03349 14.2318 3.3602C14.3333 3.60523 14.3333 3.91585 14.3333 4.53711C14.3333 5.15836 14.3333 5.46899 14.2318 5.71402C14.0965 6.04072 13.8369 6.30029 13.5102 6.43562C13.2652 6.53711 12.9546 6.53711 12.3333 6.53711H11C10.3787 6.53711 10.0681 6.53711 9.82309 6.43562C9.49638 6.30029 9.23682 6.04072 9.10149 5.71402C9 5.46899 9 5.15836 9 4.53711Z" stroke="#9C9C9C" stroke-width="1.5"/>
<path id="Rectangle 1886" d="M1.33398 13.2051C1.33398 13.8263 1.33398 14.137 1.43548 14.382C1.5708 14.7087 1.83037 14.9683 2.15707 15.1036C2.4021 15.2051 2.71273 15.2051 3.33398 15.2051H4.66732C5.28857 15.2051 5.5992 15.2051 5.84423 15.1036C6.17093 14.9683 6.4305 14.7087 6.56582 14.382C6.66732 14.137 6.66732 13.8263 6.66732 13.2051C6.66732 12.5838 6.66732 12.2732 6.56582 12.0282C6.4305 11.7015 6.17093 11.4419 5.84423 11.3066C5.5992 11.2051 5.28857 11.2051 4.66732 11.2051H3.33398C2.71273 11.2051 2.4021 11.2051 2.15707 11.3066C1.83037 11.4419 1.5708 11.7015 1.43548 12.0282C1.33398 12.2732 1.33398 12.5838 1.33398 13.2051Z" stroke="#9C9C9C" stroke-width="1.5"/>
</g>
</svg>
