<svg width="16" height="16" viewBox="0 0 16 16" fill="none" xmlns="http://www.w3.org/2000/svg">
<g id="icon_line">
<g clip-path="url(#clip0_756_50349)">
<path id="Rectangle 1884" d="M9 10.3327C9 9.0756 9 8.44706 9.39052 8.05654C9.78105 7.66602 10.4096 7.66602 11.6667 7.66602C12.9237 7.66602 13.5523 7.66602 13.9428 8.05654C14.3333 8.44706 14.3333 9.0756 14.3333 10.3327V11.666C14.3333 12.9231 14.3333 13.5516 13.9428 13.9422C13.5523 14.3327 12.9237 14.3327 11.6667 14.3327C10.4096 14.3327 9.78105 14.3327 9.39052 13.9422C9 13.5516 9 12.9231 9 11.666V10.3327Z" stroke="#111B40" stroke-width="1.5"/>
<path id="Rectangle 1885" d="M1.33398 5.66602C1.33398 6.92309 1.33398 7.55163 1.72451 7.94216C2.11503 8.33268 2.74357 8.33268 4.00065 8.33268C5.25773 8.33268 5.88627 8.33268 6.27679 7.94216C6.66732 7.55163 6.66732 6.92309 6.66732 5.66602V4.33268C6.66732 3.0756 6.66732 2.44706 6.27679 2.05654C5.88627 1.66602 5.25773 1.66602 4.00065 1.66602C2.74357 1.66602 2.11503 1.66602 1.72451 2.05654C1.33398 2.44706 1.33398 3.0756 1.33398 4.33268V5.66602Z" stroke="#111B40" stroke-width="1.5"/>
<path id="Rectangle 1881" d="M9 3.66602C9 3.04476 9 2.73413 9.10149 2.4891C9.23682 2.1624 9.49638 1.90283 9.82309 1.76751C10.0681 1.66602 10.3787 1.66602 11 1.66602H12.3333C12.9546 1.66602 13.2652 1.66602 13.5102 1.76751C13.8369 1.90283 14.0965 2.1624 14.2318 2.4891C14.3333 2.73413 14.3333 3.04476 14.3333 3.66602C14.3333 4.28727 14.3333 4.5979 14.2318 4.84293C14.0965 5.16963 13.8369 5.4292 13.5102 5.56452C13.2652 5.66602 12.9546 5.66602 12.3333 5.66602H11C10.3787 5.66602 10.0681 5.66602 9.82309 5.56452C9.49638 5.4292 9.23682 5.16963 9.10149 4.84293C9 4.5979 9 4.28727 9 3.66602Z" stroke="#111B40" stroke-width="1.5"/>
<path id="Rectangle 1886" d="M1.33398 12.334C1.33398 12.9552 1.33398 13.2659 1.43548 13.5109C1.5708 13.8376 1.83037 14.0972 2.15707 14.2325C2.4021 14.334 2.71273 14.334 3.33398 14.334H4.66732C5.28857 14.334 5.5992 14.334 5.84423 14.2325C6.17093 14.0972 6.4305 13.8376 6.56582 13.5109C6.66732 13.2659 6.66732 12.9552 6.66732 12.334C6.66732 11.7127 6.66732 11.4021 6.56582 11.1571C6.4305 10.8304 6.17093 10.5708 5.84423 10.4355C5.5992 10.334 5.28857 10.334 4.66732 10.334H3.33398C2.71273 10.334 2.4021 10.334 2.15707 10.4355C1.83037 10.5708 1.5708 10.8304 1.43548 11.1571C1.33398 11.4021 1.33398 11.7127 1.33398 12.334Z" stroke="#111B40" stroke-width="1.5"/>
</g>
</g>
<defs>
<clipPath id="clip0_756_50349">
<rect width="16" height="16" rx="5" fill="white"/>
</clipPath>
</defs>
</svg>
