<svg width="25" height="24" viewBox="0 0 25 24" fill="none" xmlns="http://www.w3.org/2000/svg">
<g id="injection" clip-path="url(#clip0_222_2434)">
<g id="items03">
<path id="Vector" d="M24.2494 6.35274L22.105 4.25913L20.5503 2.74253L18.4216 0.659127C18.2181 0.459978 17.8842 0.459978 17.6807 0.659127C17.4772 0.858276 17.4772 1.18508 17.6807 1.38423L19.4442 3.10508L17.5972 4.91274L15.8285 3.18679C15.625 2.98764 15.2964 2.98764 15.0929 3.18679C15.0929 3.18679 11.2737 6.91955 11.2633 6.92466L5.61287 12.4447C5.60766 12.4498 4.4807 13.5527 4.4807 13.5527C3.96418 14.0583 3.68244 14.7374 3.68244 15.437C3.68244 15.5953 3.69809 15.7485 3.72418 15.9068L4.36592 19.3536L0.750265 22.8821C0.546787 23.0813 0.546787 23.403 0.750265 23.6021C0.854613 23.7042 0.985048 23.7502 1.1207 23.7502C1.25635 23.7502 1.38679 23.6991 1.49113 23.6021L5.10679 20.0736L8.64418 20.6966C8.80592 20.7272 8.96766 20.7425 9.12939 20.7425C9.84418 20.7425 10.5381 20.4668 11.0494 19.9613L21.6668 9.5953C21.7659 9.50338 21.8181 9.37062 21.8181 9.23785C21.8181 9.09998 21.7659 8.97232 21.6668 8.8753L19.8877 7.14934L21.7346 5.34168L23.5137 7.07785C23.6129 7.17487 23.7485 7.22594 23.879 7.22594C24.0146 7.22594 24.1503 7.17487 24.2494 7.07274C24.4529 6.8736 24.4529 6.55189 24.2494 6.35274ZM20.5555 9.24296L11.8007 17.7859L6.70852 12.8174L7.86679 11.6889L9.03548 12.8327C9.13983 12.9298 9.27026 12.9808 9.40592 12.9808C9.54157 12.9808 9.672 12.9298 9.77635 12.8327C9.97983 12.6336 9.97983 12.3119 9.77635 12.1127L8.60766 10.9689L9.76592 9.8404L10.9346 10.9842C11.039 11.0813 11.1694 11.1323 11.305 11.1323C11.4407 11.1323 11.5711 11.0813 11.6755 10.9842C11.879 10.7851 11.879 10.4634 11.6755 10.2642L10.5068 9.1204L11.6598 7.99189L12.8337 9.13572C12.9381 9.23274 13.0685 9.28381 13.2042 9.28381C13.3398 9.28381 13.4703 9.23274 13.5746 9.13572C13.7781 8.93657 13.7781 8.61487 13.5746 8.41572L12.4059 7.277L13.5642 6.14849L14.7329 7.29232C14.8372 7.38934 14.9677 7.4404 15.1033 7.4404C15.239 7.4404 15.3694 7.38934 15.4737 7.29232C15.6772 7.09317 15.6772 6.77147 15.4737 6.57232L14.305 5.4336L15.479 4.28466L17.1955 5.95955C17.2059 5.96977 17.2164 5.98508 17.2268 5.9953L18.7816 7.51189C18.792 7.517 18.7972 7.52721 18.8077 7.53232L20.5555 9.24296Z" fill="black"/>
</g>
</g>
<defs>
<clipPath id="clip0_222_2434">
<rect width="24" height="24" fill="white" transform="translate(0.5)"/>
</clipPath>
</defs>
</svg>
