<svg width="29" height="24" viewBox="0 0 29 24" fill="none" xmlns="http://www.w3.org/2000/svg">
<g id="noun-nebulizer-5344126 1" clip-path="url(#clip0_222_2461)">
<g id="items05">
<path id="Vector" d="M22.7041 17.564H9.78795C7.34532 17.564 5.33164 18.796 5.03376 20.38H4.81333C3.09157 20.38 1.69153 19.448 1.69153 18.3C1.69153 17.148 3.09157 16.216 4.81333 16.216H11.325C14.3694 16.216 16.8418 14.56 16.8418 12.528V11.852C18.7601 11.768 20.5355 11.256 21.8105 10.42C22.9782 9.656 23.6216 8.676 23.6216 7.656C23.6216 6.88 23.2462 6.124 22.5432 5.464C21.3577 4.356 20.6368 3.392 20.2734 2.432L20.0172 1.756C19.624 0.72 18.075 0 16.246 0C14.417 0 12.868 0.72 12.4748 1.756L12.2961 2.236C11.8314 3.456 11.1225 4.46 10.1275 5.308C9.359 5.956 8.93005 6.716 8.87643 7.5C8.81686 8.492 9.38879 9.472 10.491 10.26C11.7838 11.188 13.6485 11.76 15.6503 11.856V12.528C15.6503 14.12 13.714 15.416 11.325 15.416H4.81333C2.43623 15.416 0.5 16.708 0.5 18.3C0.5 19.888 2.43623 21.18 4.81333 21.18H5.03376C5.33164 22.768 7.34532 24 9.78795 24H22.7041C25.3493 24 27.5 22.556 27.5 20.78C27.5 19.008 25.3493 17.564 22.7041 17.564ZM14.143 7.244V5.976C14.143 5.2 15.0902 4.568 16.246 4.568C17.4078 4.568 18.3491 5.2 18.3491 5.976V7.244C18.3491 7.88 17.7116 8.424 16.8418 8.592V11.06C16.5856 11.068 16.3294 11.072 16.0673 11.068C15.9303 11.064 15.7873 11.06 15.6503 11.052V8.592C14.7804 8.424 14.143 7.88 14.143 7.244ZM10.9318 21.62C10.9318 21.4 11.1999 21.22 11.5276 21.22H20.9645C21.2921 21.22 21.5602 21.4 21.5602 21.62C21.5602 21.84 21.2921 22.02 20.9645 22.02H11.5276C11.1999 22.02 10.9318 21.84 10.9318 21.62ZM20.9645 20.344H11.5276C11.1999 20.344 10.9318 20.164 10.9318 19.944C10.9318 19.72 11.1999 19.544 11.5276 19.544H20.9645C21.2921 19.544 21.5602 19.72 21.5602 19.944C21.5602 20.164 21.2921 20.344 20.9645 20.344Z" fill="black"/>
</g>
</g>
<defs>
<clipPath id="clip0_222_2461">
<rect width="28" height="24" fill="white" transform="translate(0.5)"/>
</clipPath>
</defs>
</svg>
