<svg width="24" height="24" viewBox="0 0 24 24" fill="none" xmlns="http://www.w3.org/2000/svg">
<g id="items06">
<path id="Vector" d="M23.212 13.36V2.668C23.212 1.196 22.016 0 20.544 0H3.168C1.696 0 0.5 1.196 0.5 2.668V13.36C0.5 14.832 1.696 16.028 3.168 16.028H7.88C7.704 16.7 7.1 17.196 6.376 17.196H2.896C1.576 17.196 0.5 18.272 0.5 19.596C0.5 20.92 1.576 21.996 2.896 21.996H4.688V22.844C4.688 23.48 5.208 24 5.848 24H9.484C10.12 24 10.64 23.48 10.64 22.844V20.684C10.64 20.044 10.12 19.524 9.484 19.524H5.848C5.208 19.524 4.688 20.044 4.688 20.684V21.196H2.896C2.016 21.196 1.3 20.48 1.3 19.596C1.3 18.712 2.016 17.996 2.896 17.996H6.376C7.544 17.996 8.512 17.144 8.704 16.028H15.012C15.2 17.144 16.172 17.996 17.34 17.996H20.82C21.7 17.996 22.416 18.712 22.416 19.596C22.416 20.48 21.7 21.196 20.82 21.196H19.028V20.684C19.028 20.044 18.508 19.524 17.868 19.524H14.232C13.596 19.524 13.076 20.044 13.076 20.684V22.844C13.076 23.48 13.596 24 14.232 24H17.868C18.508 24 19.028 23.48 19.028 22.844V21.996H20.82C22.14 21.996 23.216 20.92 23.216 19.596C23.216 18.272 22.14 17.196 20.82 17.196H17.34C16.616 17.196 16.012 16.696 15.836 16.028H20.548C22.016 16.028 23.212 14.832 23.212 13.36ZM21.62 5.48C21.62 6.28 20.968 6.936 20.168 6.936C19.364 6.936 18.712 6.28 18.712 5.48C18.712 4.676 19.364 4.024 20.168 4.024C20.968 4.024 21.62 4.676 21.62 5.48ZM20.168 12.008C19.364 12.008 18.712 11.352 18.712 10.552C18.712 9.748 19.364 9.096 20.168 9.096C20.968 9.096 21.62 9.748 21.62 10.552C21.62 11.352 20.968 12.008 20.168 12.008ZM3.568 12.96V3.072H17.124V12.96H3.568Z" fill="black"/>
<path id="Vector_2" d="M15.0913 7.79953H13.2273L12.4673 5.77953C12.4113 5.62753 12.2633 5.52353 12.0993 5.51953C11.9433 5.53153 11.7873 5.61553 11.7233 5.76753L10.3433 9.07153L8.96331 5.76753C8.89931 5.61553 8.75531 5.53553 8.58731 5.51953C8.42331 5.52353 8.27931 5.62353 8.21931 5.77953L7.45931 7.79953H5.59531C5.37531 7.79953 5.19531 7.97953 5.19531 8.19953C5.19531 8.41953 5.37531 8.59953 5.59531 8.59953H7.73531C7.90331 8.59953 8.05131 8.49553 8.11131 8.33953L8.61131 7.00353L9.97131 10.2635C10.0353 10.4115 10.1793 10.5115 10.3393 10.5115C10.4993 10.5115 10.6473 10.4155 10.7073 10.2635L12.0673 7.00353L12.5673 8.33953C12.6273 8.49553 12.7753 8.59953 12.9433 8.59953H15.0833C15.3033 8.59953 15.4833 8.41953 15.4833 8.19953C15.4833 7.97953 15.3113 7.79953 15.0913 7.79953Z" fill="black"/>
</g>
</svg>
