<svg width="19" height="24" viewBox="0 0 19 24" fill="none" xmlns="http://www.w3.org/2000/svg">
<g id="items09">
<path id="Vector" d="M18.396 14.096V14.076C18.128 10.624 15.928 7.568 12.732 6.256V2.728C13.416 2.652 13.948 2.072 13.948 1.368C13.948 0.612 13.336 0 12.58 0H6.01197C5.25597 0 4.64397 0.616 4.64397 1.368C4.64397 2.072 5.17597 2.652 5.85997 2.728V6.256C2.72797 7.544 0.555969 10.5 0.219969 13.868C0.211969 13.9 0.207969 13.936 0.207969 13.968C0.179969 14.24 0.167969 14.516 0.167969 14.792C0.167969 19.868 4.26397 24 9.29597 24C14.328 24 18.424 19.868 18.424 14.792C18.424 14.56 18.416 14.324 18.396 14.096ZM3.47597 16.74C3.47597 15.76 4.27197 14.964 5.25197 14.964C6.23197 14.964 7.02797 15.76 7.02797 16.74C7.02797 17.72 6.23197 18.516 5.25197 18.516C4.27197 18.516 3.47597 17.72 3.47597 16.74ZM10.028 21.328C9.04797 21.328 8.24797 20.532 8.24797 19.552C8.24797 18.572 9.04797 17.776 10.028 17.776C11.004 17.776 11.804 18.572 11.804 19.552C11.804 20.532 11.004 21.328 10.028 21.328ZM15.636 15.388C15.624 16.356 14.832 17.14 13.86 17.14C12.924 17.14 12.156 16.412 12.088 15.492C11.024 15.304 10.012 14.904 9.07997 14.304C5.53597 12.02 1.81597 13.768 0.987968 14.212C1.01197 13.888 1.05197 13.572 1.11197 13.256C1.63997 10.392 3.63597 7.94 6.39997 6.904C6.55597 6.848 6.65997 6.696 6.65997 6.532V2.736H11.932V6.532C11.932 6.696 12.036 6.848 12.192 6.904C15.148 8.012 17.224 10.74 17.572 13.86C17.604 14.148 17.62 14.436 17.624 14.728C17.176 14.928 16.488 15.196 15.636 15.388Z" fill="black"/>
</g>
</svg>
