<svg xmlns="http://www.w3.org/2000/svg" width="32" height="32" viewBox="0 0 32 32" fill="none">
<path fill-rule="evenodd" clip-rule="evenodd"
d="M27.668 9.33337C27.668 9.88566 27.2203 10.3334 26.668 10.3334L5.33464 10.3334C4.78235 10.3334 4.33464 9.88566 4.33464 9.33337C4.33464 8.78109 4.78235 8.33337 5.33464 8.33337L26.668 8.33337C27.2203 8.33337 27.668 8.78109 27.668 9.33337Z"
fill="white"/>
<path fill-rule="evenodd" clip-rule="evenodd"
d="M27.668 16C27.668 16.5523 27.2203 17 26.668 17L5.33464 17C4.78235 17 4.33464 16.5523 4.33464 16C4.33464 15.4477 4.78235 15 5.33464 15L26.668 15C27.2203 15 27.668 15.4477 27.668 16Z"
fill="white"/>
<path fill-rule="evenodd" clip-rule="evenodd"
d="M27.668 22.6666C27.668 23.2189 27.2203 23.6666 26.668 23.6666L5.33464 23.6666C4.78235 23.6666 4.33464 23.2189 4.33464 22.6666C4.33464 22.1143 4.78235 21.6666 5.33464 21.6666L26.668 21.6666C27.2203 21.6666 27.668 22.1143 27.668 22.6666Z"
fill="white"/>
</svg>