<svg width="25" height="24" viewBox="0 0 25 24" fill="none" xmlns="http://www.w3.org/2000/svg">
<g id="noun-thermometer" clip-path="url(#clip0_222_2429)">
<g id="items02">
<path id="Vector" d="M23.0201 1.14803C21.3321 -0.459968 18.5721 -0.367968 16.8681 1.35603L8.38814 9.93202C6.80414 11.532 5.57215 13.512 4.82815 15.652C4.12415 17.68 2.95615 19.552 1.45215 21.072L1.06815 21.464C0.552152 21.988 0.468152 22.812 0.872152 23.38C1.12415 23.736 1.51215 23.956 1.94015 23.992C1.97615 24 2.01615 24 2.05615 24C2.44015 24 2.80815 23.848 3.08015 23.572L3.50415 23.14C3.76015 22.884 4.02415 22.636 4.29615 22.396C4.32815 22.38 4.35615 22.36 4.38415 22.332C4.39615 22.32 4.40815 22.304 4.42015 22.292C5.73615 21.18 7.25214 20.3 8.86414 19.728C10.9801 18.976 12.9361 17.728 14.5241 16.124L22.9921 7.55602L23.1121 7.43602C23.9441 6.59202 24.3961 5.46802 24.3801 4.27603C24.3641 3.07603 23.8801 1.96803 23.0201 1.14803ZM9.08814 15.408C8.68414 15 8.68414 14.332 9.08814 13.924L13.0481 9.92002C13.2481 9.71602 13.5121 9.60402 13.7961 9.60402C14.0801 9.60402 14.3481 9.71602 14.5481 9.92002C14.9521 10.328 14.9521 10.992 14.5481 11.404L10.5881 15.408C10.1881 15.812 9.48814 15.812 9.08814 15.408ZM16.4921 6.43202C16.6881 6.22802 16.9521 6.12002 17.2321 6.12002C17.5121 6.12002 17.7761 6.22802 17.9761 6.43202C18.3841 6.84402 18.3841 7.51602 17.9761 7.93202C17.5801 8.33202 16.8881 8.33202 16.4921 7.93202C16.0801 7.51602 16.0801 6.84402 16.4921 6.43202ZM2.93615 22.58L2.51215 23.008C2.37615 23.144 2.19215 23.212 2.00415 23.196C1.81215 23.184 1.64015 23.084 1.52415 22.92C1.34015 22.664 1.38815 22.28 1.63615 22.028L2.02015 21.64C2.20415 21.456 2.38415 21.264 2.55615 21.072L3.51215 22.028C3.31615 22.208 3.12415 22.392 2.93615 22.58ZM22.7041 6.69602L17.7281 1.65603C18.4201 1.08803 19.2641 0.800031 20.1001 0.800031C20.9641 0.800031 21.8161 1.10403 22.4681 1.72803C23.1721 2.39603 23.5681 3.30403 23.5841 4.28403V4.33203C23.5841 5.20802 23.2761 6.04402 22.7041 6.69602Z" fill="black"/>
</g>
</g>
<defs>
<clipPath id="clip0_222_2429">
<rect width="24" height="24" fill="white" transform="translate(0.5)"/>
</clipPath>
</defs>
</svg>
