<svg width="25" height="24" viewBox="0 0 25 24" fill="none" xmlns="http://www.w3.org/2000/svg">
<g id="plaster" clip-path="url(#clip0_222_2445)">
<g id="items04">
<path id="Vector" d="M19.9644 12.5645L13.0684 19.4325L16.9644 23.3125C17.3924 23.7365 17.9524 23.9485 18.5124 23.9485C19.0724 23.9485 19.6324 23.7365 20.0604 23.3125L23.8564 19.5325C24.2724 19.1205 24.5004 18.5725 24.5004 17.9885C24.5004 17.4045 24.2724 16.8565 23.8564 16.4445L19.9644 12.5645ZM17.6404 19.3725C17.3124 19.3725 17.0444 19.1085 17.0444 18.7805C17.0444 18.4485 17.3124 18.1845 17.6404 18.1845C17.9684 18.1845 18.2364 18.4485 18.2364 18.7805C18.2364 19.1085 17.9684 19.3725 17.6404 19.3725ZM19.3004 16.5325C19.6284 16.5325 19.8964 16.8005 19.8964 17.1285C19.8964 17.4605 19.6284 17.7245 19.3004 17.7245C18.9724 17.7245 18.7044 17.4605 18.7044 17.1285C18.7044 16.8005 18.9724 16.5325 19.3004 16.5325ZM19.3044 21.0165C18.9764 21.0165 18.7084 20.7525 18.7084 20.4205C18.7084 20.0925 18.9764 19.8285 19.3044 19.8285C19.6324 19.8285 19.9004 20.0925 19.9004 20.4205C19.9004 20.7525 19.6324 21.0165 19.3044 21.0165ZM20.9644 19.3685C20.6364 19.3685 20.3684 19.1045 20.3684 18.7725C20.3684 18.4445 20.6364 18.1765 20.9644 18.1765C21.2924 18.1765 21.5604 18.4445 21.5604 18.7725C21.5604 19.1045 21.2924 19.3685 20.9644 19.3685Z" fill="black"/>
<path id="Vector_2" d="M5.036 11.4358L11.932 4.56783L8.036 0.687828C7.184 -0.164172 5.792 -0.164172 4.94 0.687828L1.144 4.46783C0.728 4.87983 0.5 5.42783 0.5 6.01183C0.5 6.59583 0.728 7.14383 1.144 7.55583L5.036 11.4358ZM7.356 4.62383C7.684 4.62383 7.952 4.89183 7.952 5.21983C7.952 5.54783 7.684 5.81583 7.356 5.81583C7.028 5.81583 6.76 5.54783 6.76 5.21983C6.76 4.89183 7.028 4.62383 7.356 4.62383ZM5.696 7.46383C5.368 7.46383 5.1 7.19583 5.1 6.86783C5.1 6.53983 5.368 6.27183 5.696 6.27183C6.024 6.27183 6.292 6.53983 6.292 6.86783C6.292 7.19583 6.024 7.46383 5.696 7.46383ZM5.692 2.97983C6.02 2.97983 6.288 3.24783 6.288 3.57583C6.288 3.90383 6.02 4.17183 5.692 4.17183C5.364 4.17183 5.096 3.90383 5.096 3.57583C5.096 3.24783 5.364 2.97983 5.692 2.97983ZM4.032 4.62783C4.36 4.62783 4.628 4.89583 4.628 5.22383C4.628 5.55183 4.36 5.81983 4.032 5.81983C3.704 5.81983 3.436 5.55183 3.436 5.22383C3.436 4.89583 3.704 4.62783 4.032 4.62783Z" fill="black"/>
<path id="Vector_3" d="M24.5 6.01228C24.5 5.42828 24.272 4.88028 23.856 4.46828L20.06 0.688282C19.208 -0.159718 17.82 -0.163718 16.964 0.688282L1.144 16.4443C0.728 16.8563 0.5 17.4043 0.5 17.9883C0.5 18.5723 0.728 19.1203 1.144 19.5323L4.94 23.3123C5.368 23.7363 5.928 23.9483 6.488 23.9483C7.048 23.9483 7.608 23.7363 8.036 23.3123L23.856 7.55628C24.272 7.14428 24.5 6.59628 24.5 6.01228ZM4.032 19.3683C3.704 19.3683 3.436 19.1043 3.436 18.7723C3.436 18.4443 3.704 18.1763 4.032 18.1763C4.36 18.1763 4.628 18.4443 4.628 18.7723C4.628 19.1043 4.36 19.3683 4.032 19.3683ZM5.692 21.0163C5.364 21.0163 5.096 20.7523 5.096 20.4203C5.096 20.0923 5.364 19.8283 5.692 19.8283C6.02 19.8283 6.288 20.0923 6.288 20.4203C6.288 20.7523 6.02 21.0163 5.692 21.0163ZM5.696 17.7243C5.368 17.7243 5.1 17.4603 5.1 17.1283C5.1 16.8003 5.368 16.5323 5.696 16.5323C6.024 16.5323 6.292 16.8003 6.292 17.1283C6.292 17.4603 6.024 17.7243 5.696 17.7243ZM7.356 19.3723C7.028 19.3723 6.76 19.1083 6.76 18.7803C6.76 18.4483 7.028 18.1843 7.356 18.1843C7.684 18.1843 7.952 18.4483 7.952 18.7803C7.952 19.1083 7.684 19.3723 7.356 19.3723ZM17.66 9.44828L9.936 17.1403C9.78 17.2963 9.524 17.2963 9.368 17.1403L7.34 15.1203C7.264 15.0443 7.22 14.9443 7.22 14.8363C7.22 14.7283 7.264 14.6283 7.34 14.5523L15.064 6.86028C15.144 6.78028 15.244 6.74428 15.348 6.74428C15.452 6.74428 15.552 6.78028 15.632 6.86028L17.66 8.88028C17.736 8.95628 17.78 9.05628 17.78 9.16428C17.78 9.27228 17.736 9.37228 17.66 9.44828ZM17.64 5.81628C17.312 5.81628 17.044 5.54828 17.044 5.22028C17.044 4.89228 17.312 4.62428 17.64 4.62428C17.968 4.62428 18.236 4.89228 18.236 5.22028C18.236 5.54828 17.968 5.81628 17.64 5.81628ZM19.3 7.46428C18.972 7.46428 18.704 7.19628 18.704 6.86828C18.704 6.54028 18.972 6.27228 19.3 6.27228C19.628 6.27228 19.896 6.54028 19.896 6.86828C19.896 7.19628 19.628 7.46428 19.3 7.46428ZM19.304 4.17228C18.976 4.17228 18.708 3.90428 18.708 3.57628C18.708 3.24828 18.976 2.98028 19.304 2.98028C19.632 2.98028 19.9 3.24828 19.9 3.57628C19.9 3.90428 19.632 4.17228 19.304 4.17228ZM20.964 5.82028C20.636 5.82028 20.368 5.55228 20.368 5.22428C20.368 4.89628 20.636 4.62828 20.964 4.62828C21.292 4.62828 21.56 4.89628 21.56 5.22428C21.56 5.55228 21.292 5.82028 20.964 5.82028Z" fill="black"/>
</g>
</g>
<defs>
<clipPath id="clip0_222_2445">
<rect width="24" height="24" fill="white" transform="translate(0.5)"/>
</clipPath>
</defs>
</svg>
