<svg width="14" height="14" viewBox="0 0 14 14" fill="none" xmlns="http://www.w3.org/2000/svg">
<g id="Bold / Security / Shield Star">
<path id="Vector" fill-rule="evenodd" clip-rule="evenodd" d="M1.97022 2.9647C1.75 3.27846 1.75 4.21108 1.75 6.07634V6.99492C1.75 10.2838 4.22273 11.8798 5.77416 12.5575C6.19501 12.7414 6.40543 12.8333 7 12.8333C7.59457 12.8333 7.80499 12.7414 8.22584 12.5575C9.77727 11.8798 12.25 10.2838 12.25 6.99492V6.07634C12.25 4.21108 12.25 3.27846 12.0298 2.9647C11.8096 2.65094 10.9326 2.35077 9.1788 1.75042L8.84466 1.63604C7.93043 1.3231 7.47331 1.16663 7 1.16663C6.52669 1.16663 6.06957 1.3231 5.15534 1.63604L4.8212 1.75042C3.06736 2.35077 2.19043 2.65094 1.97022 2.9647ZM6.33574 4.87858L6.25928 5.01575C6.17529 5.16641 6.1333 5.24174 6.06782 5.29145C6.00234 5.34115 5.9208 5.3596 5.75771 5.3965L5.60923 5.4301C5.0353 5.55996 4.74834 5.62488 4.68006 5.84443C4.61179 6.06398 4.80742 6.29274 5.19869 6.75028L5.29991 6.86864C5.4111 6.99866 5.46669 7.06367 5.4917 7.14409C5.51671 7.22452 5.50831 7.31125 5.4915 7.48472L5.47619 7.64265C5.41704 8.2531 5.38746 8.55832 5.5662 8.69401C5.74494 8.8297 6.01362 8.70599 6.55099 8.45856L6.69001 8.39455C6.84272 8.32425 6.91907 8.28909 7 8.28909C7.08093 8.28909 7.15728 8.32424 7.30999 8.39455L7.44901 8.45857C7.98638 8.70599 8.25506 8.8297 8.4338 8.69401C8.61254 8.55832 8.58296 8.2531 8.52381 7.64266L8.5085 7.48472C8.4917 7.31126 8.48329 7.22452 8.5083 7.14409C8.53331 7.06367 8.5889 6.99866 8.70009 6.86864L8.80131 6.75028C9.19257 6.29274 9.38821 6.06398 9.31993 5.84443C9.25166 5.62488 8.9647 5.55996 8.39077 5.4301L8.24229 5.3965C8.0792 5.3596 7.99766 5.34115 7.93218 5.29145C7.8667 5.24174 7.82471 5.16641 7.74073 5.01575L7.66426 4.87858C7.36871 4.34839 7.22093 4.08329 7 4.08329C6.77907 4.08329 6.63129 4.34839 6.33574 4.87858Z" fill="white"/>
</g>
</svg>
