<svg width="24" height="24" viewBox="0 0 24 24" fill="none" xmlns="http://www.w3.org/2000/svg">
<g id="items07">
<path id="Vector" d="M20.5505 15.504V10.408C20.5505 8.26 18.8105 6.512 16.6705 6.512C14.5305 6.512 12.7905 8.26 12.7905 10.408V20.108C12.7905 21.812 11.4105 23.2 9.71048 23.2C8.01448 23.2 6.63048 21.812 6.63048 20.108V16.396C7.10248 16.232 7.44248 15.784 7.44248 15.256V10.856C9.23048 10.316 10.6065 8.936 11.1545 7.108C11.3065 6.604 11.1105 6.076 10.7065 5.776L11.3065 3.76C11.5065 3.096 11.3825 2.4 10.9705 1.848C10.6305 1.392 10.1425 1.096 9.59448 1.012C9.43448 0.428 8.89848 0 8.27048 0C7.51048 0 6.89448 0.62 6.89448 1.38C6.89448 2.14 7.51048 2.756 8.27048 2.756C8.87448 2.756 9.39048 2.364 9.57048 1.82C9.87048 1.892 10.1385 2.068 10.3305 2.324C10.5905 2.672 10.6665 3.112 10.5425 3.532L9.93448 5.552C9.75848 5.56 9.58248 5.604 9.42248 5.692C9.13448 5.844 8.92648 6.1 8.83448 6.412C8.43048 7.764 7.21448 8.672 5.81048 8.672C4.40248 8.672 3.18648 7.764 2.78248 6.412C2.69048 6.1 2.48248 5.844 2.19848 5.692C2.03448 5.604 1.85848 5.556 1.67848 5.552L1.07448 3.528C0.950476 3.112 1.02648 2.672 1.28648 2.324C1.47848 2.068 1.74648 1.892 2.04648 1.82C2.22648 2.364 2.74248 2.756 3.34648 2.756C4.10648 2.756 4.72248 2.14 4.72248 1.38C4.72248 0.62 4.10648 0 3.34648 0C2.71848 0 2.18248 0.428 2.02248 1.012C1.47448 1.096 0.986476 1.392 0.646476 1.848C0.234476 2.4 0.110476 3.096 0.310476 3.76L0.914476 5.78C0.510476 6.072 0.314476 6.6 0.466476 7.108C1.09848 9.232 2.86648 10.74 5.02248 11.04V15.256C5.02248 15.784 5.35848 16.232 5.83048 16.396V20.108C5.83048 22.252 7.57048 24 9.71048 24C11.8505 24 13.5905 22.252 13.5905 20.108V10.408C13.5905 8.7 14.9745 7.312 16.6705 7.312C18.3705 7.312 19.7505 8.7 19.7505 10.408V15.504C18.2865 15.7 17.1585 16.96 17.1585 18.48C17.1585 20.136 18.4985 21.484 20.1505 21.484C21.8025 21.484 23.1465 20.136 23.1465 18.48C23.1465 16.96 22.0145 15.7 20.5505 15.504ZM8.27048 1.956C7.95448 1.956 7.69448 1.696 7.69448 1.38C7.69448 1.06 7.95448 0.8 8.27048 0.8C8.58648 0.8 8.84648 1.06 8.84648 1.38C8.84648 1.696 8.58648 1.956 8.27048 1.956ZM3.34648 0.8C3.66648 0.8 3.92248 1.06 3.92248 1.38C3.92248 1.696 3.66648 1.956 3.34648 1.956C3.03048 1.956 2.77048 1.696 2.77048 1.38C2.77048 1.06 3.03048 0.8 3.34648 0.8ZM20.1505 19.86C19.3945 19.86 18.7785 19.24 18.7785 18.48C18.7785 17.72 19.3945 17.1 20.1505 17.1C20.9105 17.1 21.5265 17.72 21.5265 18.48C21.5265 19.24 20.9105 19.86 20.1505 19.86Z" fill="black"/>
<path id="Vector_2" d="M20.1501 17.9004C19.8341 17.9004 19.5781 18.1604 19.5781 18.4804C19.5781 18.8004 19.8341 19.0604 20.1501 19.0604C20.4701 19.0604 20.7261 18.8004 20.7261 18.4804C20.7261 18.1604 20.4701 17.9004 20.1501 17.9004Z" fill="black"/>
</g>
</svg>
